<svg width="605.225px" height="120.8px" xmlns="http://www.w3.org/2000/svg" viewBox="-52.61250000000001 14.600000000000001 605.225 120.8" style="background:#596886" preserveAspectRatio="xMidYMid"><defs><filter id="editing-hover" x="-100%" y="-100%" width="300%" height="300%"><feFlood flood-color="#052b4a" result="flood"></feFlood><feComposite operator="in" in2="SourceAlpha" in="flood" result="shadow"></feComposite><feOffset dx="-3.5" dy="-3.5" in="SourceGraphic" result="offset-1"></feOffset><feOffset dx="3.5" dy="3.5" in="shadow" result="offset-2"></feOffset><feMerge><feMergeNode in="offset-2"></feMergeNode><feMergeNode in="offset-1"></feMergeNode></feMerge></filter></defs><g filter="url(#editing-hover)"><g transform="translate(34.80001711845398, 104.79000091552734)"><path d="M24.32-31.55L24.32-31.55L24.32-31.55Q26.43-33.92 30.08-33.92L30.08-33.92L30.08-33.92Q32.32-33.92 34.05-32.70L34.05-32.70L34.05-32.70Q35.78-31.49 35.78-29.22L35.78-29.22L35.78-29.22Q35.78-26.94 35.07-24.51L35.07-24.51L35.07-24.51Q34.37-22.08 33.28-19.58L33.28-19.58L33.28-19.58Q31.10-14.72 28.10-10.69L28.10-10.69L28.10-10.69Q23.87-4.86 19.81-1.79L19.81-1.79L19.81-1.79Q15.74 1.28 11.33 1.28L11.33 1.28L11.33 1.28Q7.74 1.28 5.57 0.45L5.57 0.45L5.57 0.45Q5.18-12.99 4.70-17.79L4.70-17.79L4.70-17.79Q4.22-22.59 3.84-25.22L3.84-25.22L3.84-25.22Q3.20-30.34 1.28-31.55L1.28-31.55L1.28-31.55Q2.75-32.83 4.19-33.38L4.19-33.38L4.19-33.38Q5.63-33.92 8.61-33.92L8.61-33.92L8.61-33.92Q11.58-33.92 13.70-31.58L13.70-31.58L13.70-31.58Q15.81-29.25 16.22-25.12L16.22-25.12L16.22-25.12Q16.64-20.99 16.64-16L16.64-16L16.64-16Q16.64-11.01 16.26-4.99L16.26-4.99L16.26-4.99Q18.24-6.40 20.35-10.69L20.35-10.69L20.35-10.69Q23.23-16.64 24.26-23.81L24.26-23.81L24.26-23.81Q24.58-25.98 24.58-28.29L24.58-28.29L24.58-28.29Q24.58-30.59 24.32-31.55ZM52.86-3.52L52.86-3.52L52.86-3.52Q50.88 1.28 44.54 1.28L44.54 1.28L44.54 1.28Q41.28 1.28 39.23-0.96L39.23-0.96L39.23-0.96Q37.50-2.94 37.50-4.93L37.50-4.93L37.50-4.93Q37.50-10.11 39.87-20.22L39.87-20.22L42.24-32.64L55.23-33.92L51.33-13.70L51.33-13.70Q50.24-8.96 50.24-7.30L50.24-7.30L50.24-7.30Q50.24-3.65 52.86-3.52ZM43.39-41.54L43.39-41.54L43.39-41.54Q43.39-44.03 45.47-45.38L45.47-45.38L45.47-45.38Q47.55-46.72 50.56-46.72L50.56-46.72L50.56-46.72Q53.57-46.72 55.39-45.38L55.39-45.38L55.39-45.38Q57.22-44.03 57.22-41.54L57.22-41.54L57.22-41.54Q57.22-39.04 55.20-37.76L55.20-37.76L55.20-37.76Q53.18-36.48 50.18-36.48L50.18-36.48L50.18-36.48Q47.17-36.48 45.28-37.76L45.28-37.76L45.28-37.76Q43.39-39.04 43.39-41.54ZM59.33-6.40L59.33-6.40L59.33-6.40Q59.33-8.13 60.22-12.48L60.22-12.48L63.62-29.76L59.84-29.76L60.10-31.68L60.10-31.68Q67.78-33.98 75.20-39.62L75.20-39.62L78.27-39.62L76.74-32.64L81.73-32.64L81.15-29.76L76.22-29.76L72.96-12.48L72.96-12.48Q72.13-8.51 72.13-7.17L72.13-7.17L72.13-7.17Q72.13-4.10 74.82-3.46L74.82-3.46L74.82-3.46Q74.18-1.28 71.87 0L71.87 0L71.87 0Q69.57 1.28 66.30 1.28L66.30 1.28L66.30 1.28Q63.04 1.28 61.18-0.77L61.18-0.77L61.18-0.77Q59.33-2.82 59.33-6.40ZM113.60-7.10L113.60-7.10L113.60-7.10Q113.60-4.29 116.48-3.46L116.48-3.46L116.48-3.46Q115.78-1.09 113.02 0.19L113.02 0.19L113.02 0.19Q110.72 1.28 108.19 1.28L108.19 1.28L108.19 1.28Q105.66 1.28 104.35 0.61L104.35 0.61L104.35 0.61Q103.04-0.06 102.34-1.15L102.34-1.15L102.34-1.15Q101.18-2.82 101.18-5.95L101.18-5.95L101.18-5.95Q101.18-7.81 102.21-12.93L102.21-12.93L103.10-17.79L103.10-17.79Q104.19-23.36 104.19-25.41L104.19-25.41L104.19-25.41Q104.19-28.99 102.21-28.99L102.21-28.99L102.21-28.99Q99.71-28.99 98.11-25.34L98.11-25.34L98.11-25.34Q97.47-23.94 97.02-21.82L97.02-21.82L92.67 0L79.81 1.28L88.83-44.80L101.70-46.08L101.18-43.52L101.18-43.52Q99.39-33.66 97.86-30.34L97.86-30.34L97.86-30.34Q101.44-33.92 108.03-33.92L108.03-33.92L108.03-33.92Q115.01-33.92 116.29-29.31L116.29-29.31L116.29-29.31Q116.74-27.84 116.74-26.56L116.74-26.56L116.74-26.56Q116.74-25.28 116.64-24.29L116.64-24.29L116.64-24.29Q116.54-23.30 116.22-21.50L116.22-21.50L115.39-16.90L113.92-9.66L113.92-9.66Q113.60-8.19 113.60-7.10ZM147.58-10.82L147.58-10.82L147.58-10.82Q149.18-9.73 149.18-7.33L149.18-7.33L149.18-7.33Q149.18-4.93 147.97-3.39L147.97-3.39L147.97-3.39Q146.75-1.86 144.77-0.83L144.77-0.83L144.77-0.83Q140.67 1.28 136.26 1.28L136.26 1.28L136.26 1.28Q131.84 1.28 129.25 0.32L129.25 0.32L129.25 0.32Q126.66-0.64 124.93-2.43L124.93-2.43L124.93-2.43Q121.54-5.82 121.54-12.03L121.54-12.03L121.54-12.03Q121.54-21.70 126.78-27.58L126.78-27.58L126.78-27.58Q132.42-33.92 142.21-33.92L142.21-33.92L142.21-33.92Q148.29-33.92 151.30-31.36L151.30-31.36L151.30-31.36Q153.54-29.44 153.54-26.30L153.54-26.30L153.54-26.30Q153.54-15.04 134.08-15.04L134.08-15.04L134.08-15.04Q133.82-13.38 133.82-11.97L133.82-11.97L133.82-11.97Q133.82-9.02 135.14-7.90L135.14-7.90L135.14-7.90Q136.45-6.78 138.88-6.78L138.88-6.78L138.88-6.78Q141.31-6.78 143.90-7.90L143.90-7.90L143.90-7.90Q146.50-9.02 147.58-10.82ZM134.53-17.79L134.53-17.79L134.53-17.79Q139.07-17.79 141.70-20.61L141.70-20.61L141.70-20.61Q144.32-23.30 144.32-27.58L144.32-27.58L144.32-27.58Q144.32-29.06 143.78-29.86L143.78-29.86L143.78-29.86Q143.23-30.66 142.14-30.66L142.14-30.66L142.14-30.66Q141.06-30.66 140.13-30.24L140.13-30.24L140.13-30.24Q139.20-29.82 138.24-28.42L138.24-28.42L138.24-28.42Q135.87-25.22 134.53-17.79ZM174.85-22.46L174.85-22.46L174.85-22.46Q175.74-24.83 175.74-26.88L175.74-26.88L175.74-26.88Q175.74-30.66 172.67-30.66L172.67-30.66L172.67-30.66Q171.07-30.66 169.76-29.22L169.76-29.22L169.76-29.22Q168.45-27.78 168.45-25.98L168.45-25.98L168.45-25.98Q168.45-24.70 169.47-23.68L169.47-23.68L169.47-23.68Q170.94-22.27 174.72-19.97L174.72-19.97L174.72-19.97Q178.50-17.66 179.94-15.78L179.94-15.78L179.94-15.78Q181.38-13.89 181.38-11.30L181.38-11.30L181.38-11.30Q181.38-8.70 180.13-6.34L180.13-6.34L180.13-6.34Q178.88-3.97 176.64-2.30L176.64-2.30L176.64-2.30Q171.84 1.28 164.16 1.28L164.16 1.28L164.16 1.28Q160.00 1.28 156.80-0.90L156.80-0.90L156.80-0.90Q153.60-3.01 153.60-5.50L153.60-5.50L153.60-5.50Q153.60-8 155.42-9.47L155.42-9.47L155.42-9.47Q157.25-10.94 159.94-10.94L159.94-10.94L159.94-10.94Q162.62-10.94 164.29-9.92L164.29-9.92L164.29-9.92Q163.46-7.81 163.46-6.40L163.46-6.40L163.46-6.40Q163.46-2.18 167.04-2.18L167.04-2.18L167.04-2.18Q168.58-2.18 169.60-3.14L169.60-3.14L169.60-3.14Q170.62-4.10 170.62-5.76L170.62-5.76L170.62-5.76Q170.62-9.02 165.12-12.48L165.12-12.48L165.12-12.48Q160.64-15.42 159.62-16.58L159.62-16.58L159.62-16.58Q157.89-18.62 157.89-21.18L157.89-21.18L157.89-21.18Q157.89-23.74 159.10-26.18L159.10-26.18L159.10-26.18Q160.32-28.61 162.56-30.34L162.56-30.34L162.56-30.34Q167.23-33.92 175.36-33.92L175.36-33.92L175.36-33.92Q179.52-33.92 181.98-32.26L181.98-32.26L181.98-32.26Q184.45-30.59 184.45-27.78L184.45-27.78L184.45-27.78Q184.45-24.96 182.75-23.36L182.75-23.36L182.75-23.36Q181.06-21.76 177.98-21.76L177.98-21.76L177.98-21.76Q175.87-21.76 174.85-22.46ZM219.01-7.10L219.01-7.10L219.01-7.10Q219.01-4.29 221.89-3.46L221.89-3.46L221.89-3.46Q221.18-1.09 218.43 0.19L218.43 0.19L218.43 0.19Q216.13 1.28 213.60 1.28L213.60 1.28L213.60 1.28Q211.07 1.28 209.76 0.61L209.76 0.61L209.76 0.61Q208.45-0.06 207.74-1.15L207.74-1.15L207.74-1.15Q206.59-2.82 206.59-5.95L206.59-5.95L206.59-5.95Q206.59-7.81 207.62-12.93L207.62-12.93L208.51-17.79L208.51-17.79Q209.60-23.36 209.60-25.41L209.60-25.41L209.60-25.41Q209.60-28.99 207.62-28.99L207.62-28.99L207.62-28.99Q205.12-28.99 203.52-25.34L203.52-25.34L203.52-25.34Q202.88-23.94 202.43-21.82L202.43-21.82L198.08 0L185.22 1.28L194.24-44.80L207.10-46.08L206.59-43.52L206.59-43.52Q204.80-33.66 203.26-30.34L203.26-30.34L203.26-30.34Q206.85-33.92 213.44-33.92L213.44-33.92L213.44-33.92Q220.42-33.92 221.70-29.31L221.70-29.31L221.70-29.31Q222.14-27.84 222.14-26.56L222.14-26.56L222.14-26.56Q222.14-25.28 222.05-24.29L222.05-24.29L222.05-24.29Q221.95-23.30 221.63-21.50L221.63-21.50L220.80-16.90L219.33-9.66L219.33-9.66Q219.01-8.19 219.01-7.10ZM259.39-22.46L259.39-22.46L259.39-22.46Q260.29-24.83 260.29-26.88L260.29-26.88L260.29-26.88Q260.29-30.66 257.22-30.66L257.22-30.66L257.22-30.66Q255.62-30.66 254.30-29.22L254.30-29.22L254.30-29.22Q252.99-27.78 252.99-25.98L252.99-25.98L252.99-25.98Q252.99-24.70 254.02-23.68L254.02-23.68L254.02-23.68Q255.49-22.27 259.26-19.97L259.26-19.97L259.26-19.97Q263.04-17.66 264.48-15.78L264.48-15.78L264.48-15.78Q265.92-13.89 265.92-11.30L265.92-11.30L265.92-11.30Q265.92-8.70 264.67-6.34L264.67-6.34L264.67-6.34Q263.42-3.97 261.18-2.30L261.18-2.30L261.18-2.30Q256.38 1.28 248.70 1.28L248.70 1.28L248.70 1.28Q244.54 1.28 241.34-0.90L241.34-0.90L241.34-0.90Q238.14-3.01 238.14-5.50L238.14-5.50L238.14-5.50Q238.14-8 239.97-9.47L239.97-9.47L239.97-9.47Q241.79-10.94 244.48-10.94L244.48-10.94L244.48-10.94Q247.17-10.94 248.83-9.92L248.83-9.92L248.83-9.92Q248-7.81 248-6.40L248-6.40L248-6.40Q248-2.18 251.58-2.18L251.58-2.18L251.58-2.18Q253.12-2.18 254.14-3.14L254.14-3.14L254.14-3.14Q255.17-4.10 255.17-5.76L255.17-5.76L255.17-5.76Q255.17-9.02 249.66-12.48L249.66-12.48L249.66-12.48Q245.18-15.42 244.16-16.58L244.16-16.58L244.16-16.58Q242.43-18.62 242.43-21.18L242.43-21.18L242.43-21.18Q242.43-23.74 243.65-26.18L243.65-26.18L243.65-26.18Q244.86-28.61 247.10-30.34L247.10-30.34L247.10-30.34Q251.78-33.92 259.90-33.92L259.90-33.92L259.90-33.92Q264.06-33.92 266.53-32.26L266.53-32.26L266.53-32.26Q268.99-30.59 268.99-27.78L268.99-27.78L268.99-27.78Q268.99-24.96 267.30-23.36L267.30-23.36L267.30-23.36Q265.60-21.76 262.53-21.76L262.53-21.76L262.53-21.76Q260.42-21.76 259.39-22.46ZM303.55-7.10L303.55-7.10L303.55-7.10Q303.55-4.29 306.43-3.46L306.43-3.46L306.43-3.46Q305.73-1.09 302.98 0.19L302.98 0.19L302.98 0.19Q300.67 1.28 298.14 1.28L298.14 1.28L298.14 1.28Q295.62 1.28 294.30 0.61L294.30 0.61L294.30 0.61Q292.99-0.06 292.29-1.15L292.29-1.15L292.29-1.15Q291.14-2.82 291.14-5.95L291.14-5.95L291.14-5.95Q291.14-7.81 292.16-12.93L292.16-12.93L293.06-17.79L293.06-17.79Q294.14-23.36 294.14-25.41L294.14-25.41L294.14-25.41Q294.14-28.99 292.16-28.99L292.16-28.99L292.16-28.99Q289.66-28.99 288.06-25.34L288.06-25.34L288.06-25.34Q287.42-23.94 286.98-21.82L286.98-21.82L282.62 0L269.76 1.28L278.78-44.80L291.65-46.08L291.14-43.52L291.14-43.52Q289.34-33.66 287.81-30.34L287.81-30.34L287.81-30.34Q291.39-33.92 297.98-33.92L297.98-33.92L297.98-33.92Q304.96-33.92 306.24-29.31L306.24-29.31L306.24-29.31Q306.69-27.84 306.69-26.56L306.69-26.56L306.69-26.56Q306.69-25.28 306.59-24.29L306.59-24.29L306.59-24.29Q306.50-23.30 306.18-21.50L306.18-21.50L305.34-16.90L303.87-9.66L303.87-9.66Q303.55-8.19 303.55-7.10ZM337.54-10.82L337.54-10.82L337.54-10.82Q339.14-9.73 339.14-7.33L339.14-7.33L339.14-7.33Q339.14-4.93 337.92-3.39L337.92-3.39L337.92-3.39Q336.70-1.86 334.72-0.83L334.72-0.83L334.72-0.83Q330.62 1.28 326.21 1.28L326.21 1.28L326.21 1.28Q321.79 1.28 319.20 0.32L319.20 0.32L319.20 0.32Q316.61-0.64 314.88-2.43L314.88-2.43L314.88-2.43Q311.49-5.82 311.49-12.03L311.49-12.03L311.49-12.03Q311.49-21.70 316.74-27.58L316.74-27.58L316.74-27.58Q322.37-33.92 332.16-33.92L332.16-33.92L332.16-33.92Q338.24-33.92 341.25-31.36L341.25-31.36L341.25-31.36Q343.49-29.44 343.49-26.30L343.49-26.30L343.49-26.30Q343.49-15.04 324.03-15.04L324.03-15.04L324.03-15.04Q323.78-13.38 323.78-11.97L323.78-11.97L323.78-11.97Q323.78-9.02 325.09-7.90L325.09-7.90L325.09-7.90Q326.40-6.78 328.83-6.78L328.83-6.78L328.83-6.78Q331.26-6.78 333.86-7.90L333.86-7.90L333.86-7.90Q336.45-9.02 337.54-10.82ZM324.48-17.79L324.48-17.79L324.48-17.79Q329.02-17.79 331.65-20.61L331.65-20.61L331.65-20.61Q334.27-23.30 334.27-27.58L334.27-27.58L334.27-27.58Q334.27-29.06 333.73-29.86L333.73-29.86L333.73-29.86Q333.18-30.66 332.10-30.66L332.10-30.66L332.10-30.66Q331.01-30.66 330.08-30.24L330.08-30.24L330.08-30.24Q329.15-29.82 328.19-28.42L328.19-28.42L328.19-28.42Q325.82-25.22 324.48-17.79ZM346.69-6.40L346.69-6.40L346.69-6.40Q346.69-8.13 347.58-12.48L347.58-12.48L350.98-29.76L347.20-29.76L347.46-31.68L347.46-31.68Q355.14-33.98 362.56-39.62L362.56-39.62L365.63-39.62L364.10-32.64L369.09-32.64L368.51-29.76L363.58-29.76L360.32-12.48L360.32-12.48Q359.49-8.51 359.49-7.17L359.49-7.17L359.49-7.17Q359.49-4.10 362.18-3.46L362.18-3.46L362.18-3.46Q361.54-1.28 359.23 0L359.23 0L359.23 0Q356.93 1.28 353.66 1.28L353.66 1.28L353.66 1.28Q350.40 1.28 348.54-0.77L348.54-0.77L348.54-0.77Q346.69-2.82 346.69-6.40ZM369.79-6.40L369.79-6.40L369.79-6.40Q369.79-8.13 370.69-12.48L370.69-12.48L374.08-29.76L370.30-29.76L370.56-31.68L370.56-31.68Q378.24-33.98 385.66-39.62L385.66-39.62L388.74-39.62L387.20-32.64L392.19-32.64L391.62-29.76L386.69-29.76L383.42-12.48L383.42-12.48Q382.59-8.51 382.59-7.17L382.59-7.17L382.59-7.17Q382.59-4.10 385.28-3.46L385.28-3.46L385.28-3.46Q384.64-1.28 382.34 0L382.34 0L382.34 0Q380.03 1.28 376.77 1.28L376.77 1.28L376.77 1.28Q373.50 1.28 371.65-0.77L371.65-0.77L371.65-0.77Q369.79-2.82 369.79-6.40ZM412.22-7.23L412.22-7.23L412.22-7.23Q408.90-3.78 402.82-3.78L402.82-3.78L402.82-3.78Q395.20-3.78 393.60-9.34L393.60-9.34L393.60-9.34Q393.09-11.01 393.09-12.86L393.09-12.86L393.09-12.86Q393.09-14.72 393.47-16.64L393.47-16.64L396.48-32.64L409.47-33.92L405.95-15.30L405.95-15.30Q405.82-14.46 405.63-13.57L405.63-13.57L405.63-13.57Q405.44-12.67 405.44-11.74L405.44-11.74L405.44-11.74Q405.44-10.82 405.76-10.21L405.76-10.21L405.76-10.21Q406.08-9.60 406.53-9.22L406.53-9.22L406.53-9.22Q407.30-8.70 408.67-8.70L408.67-8.70L408.67-8.70Q410.05-8.70 411.23-10.37L411.23-10.37L411.23-10.37Q412.42-12.03 412.99-14.91L412.99-14.91L416.51-32.64L429.12-33.92L424.32-8.77L424.32-8.77Q421.95 3.52 417.09 8.38L417.09 8.38L417.09 8.38Q414.59 10.88 411.36 11.87L411.36 11.87L411.36 11.87Q408.13 12.86 403.97 12.86L403.97 12.86L403.97 12.86Q397.25 12.86 393.41 10.75L393.41 10.75L393.41 10.75Q389.57 8.64 389.57 5.12L389.57 5.12L389.57 5.12Q389.57 2.50 391.55 0.99L391.55 0.99L391.55 0.99Q393.54-0.51 396.61-0.51L396.61-0.51L396.61-0.51Q399.30-0.51 401.34 0.64L401.34 0.64L401.34 0.64Q402.56 1.34 403.14 2.24L403.14 2.24L403.14 2.24Q401.66 3.52 401.66 5.63L401.66 5.63L401.66 5.63Q401.66 8.45 404.22 8.45L404.22 8.45L404.22 8.45Q408.45 8.45 410.88-1.28L410.88-1.28L410.88-1.28Q411.58-4.16 412.22-7.23Z" fill="#ffd5af"></path></g></g><style>text {
  font-size: 64px;
  font-family: Arial Black;
  dominant-baseline: central;
  text-anchor: middle;
}</style></svg>